<?xml version="1.0" encoding="UTF-8" standalone="no"?>
<!-- Created with Inkscape (http://www.inkscape.org/) -->

<svg
   xmlns:dc="http://purl.org/dc/elements/1.1/"
   xmlns:cc="http://creativecommons.org/ns#"
   xmlns:rdf="http://www.w3.org/1999/02/22-rdf-syntax-ns#"
   xmlns:svg="http://www.w3.org/2000/svg"
   xmlns="http://www.w3.org/2000/svg"
   xmlns:xlink="http://www.w3.org/1999/xlink"
   xmlns:sodipodi="http://sodipodi.sourceforge.net/DTD/sodipodi-0.dtd"
   xmlns:inkscape="http://www.inkscape.org/namespaces/inkscape"
   width="1352.9431"
   height="188.22678"
   viewBox="0 0 1352.9431 188.22678"
   version="1.1"
   id="SVGRoot"
   inkscape:version="0.92.4 (5da689c313, 2019-01-14)"
   sodipodi:docname="booksDatabase.svg">
  <defs
     id="defs1381">
    <linearGradient
       inkscape:collect="always"
       id="linearGradient6831">
      <stop
         style="stop-color:#6c757d;stop-opacity:1;"
         offset="0"
         id="stop6827" />
      <stop
         style="stop-color:#6c757d;stop-opacity:0;"
         offset="1"
         id="stop6829" />
    </linearGradient>
    <linearGradient
       inkscape:collect="always"
       xlink:href="#linearGradient6831"
       id="linearGradient6833"
       x1="192.98938"
       y1="95.129019"
       x2="1423.8901"
       y2="95.129019"
       gradientUnits="userSpaceOnUse" />
  </defs>
  <sodipodi:namedview
     id="base"
     pagecolor="#ffffff"
     bordercolor="#666666"
     borderopacity="1.0"
     inkscape:pageopacity="0.0"
     inkscape:pageshadow="2"
     inkscape:zoom="0.70710678"
     inkscape:cx="537.94441"
     inkscape:cy="-73.007029"
     inkscape:document-units="px"
     inkscape:current-layer="layer1"
     showgrid="false"
     inkscape:window-width="1175"
     inkscape:window-height="704"
     inkscape:window-x="59"
     inkscape:window-y="110"
     inkscape:window-maximized="0"
     showguides="false" />
  <metadata
     id="metadata1384">
    <rdf:RDF>
      <cc:Work
         rdf:about="">
        <dc:format>image/svg+xml</dc:format>
        <dc:type
           rdf:resource="http://purl.org/dc/dcmitype/StillImage" />
        <dc:title />
      </cc:Work>
    </rdf:RDF>
  </metadata>
  <g
     inkscape:label="Layer 1"
     inkscape:groupmode="layer"
     id="layer1"
     transform="translate(-7.95742,-4.9631159)">
    <path
       style="font-style:normal;font-variant:normal;font-weight:normal;font-stretch:normal;font-size:184.15405273px;line-height:1.20000005;font-family:cookie;-inkscape-font-specification:cookie;letter-spacing:0px;word-spacing:0px;fill:#6c757d;fill-opacity:1;stroke:none;stroke-width:2.87740707;"
       d="M 504.01562 23.255859 L 495.33594 26.265625 C 486.39806 28.89989 479.52364 30.216797 474.71094 30.216797 L 474.71094 35.767578 L 482.01562 35.767578 C 485.96892 35.767578 488.2031 36.520096 488.71875 38.025391 C 489.57816 40.534214 490.00781 52.169171 490.00781 72.929688 L 490.00781 129.00195 C 490.00781 145.05842 489.60681 153.99751 488.80469 155.81641 C 488.00257 157.6353 485.39602 158.54492 480.98438 158.54492 L 475.91406 158.54492 L 475.91406 164 L 498.77344 163.3418 C 501.40897 163.3418 506.85316 163.4989 515.10352 163.8125 L 519.74414 164 L 519.74414 158.54492 L 514.50195 158.54492 C 509.68925 158.54492 506.79431 157.54026 505.82031 155.5332 C 504.90361 153.52614 504.44531 144.62004 504.44531 128.81445 L 504.44531 116.86523 L 505.5625 116.86523 C 511.29191 122.38465 518.76979 130.19495 527.99414 140.29297 C 540.59885 154.0915 548.59035 162.49527 551.9707 165.50586 C 557.92929 163.93784 563.40213 161.93048 568.38672 159.48438 L 568.38672 155.3457 C 566.49601 155.09482 565.0352 154.74959 564.00391 154.31055 C 562.97261 153.80878 561.74095 152.89916 560.30859 151.58203 C 557.95954 149.51225 551.05453 142.7066 539.5957 131.16602 C 537.13206 128.71991 530.51543 121.38286 519.74414 109.15234 C 534.12496 96.106461 544.43658 87.543635 550.68164 83.466797 C 553.83282 81.397017 556.41267 80.363281 558.41797 80.363281 L 561.51172 80.363281 L 561.51172 74.90625 L 544.15039 74.90625 L 531.77539 87.607422 C 525.07198 94.632128 520.77547 99.021167 518.88477 100.77734 C 515.21794 104.16426 510.77626 107.99086 505.5625 112.25586 L 504.44531 111.59766 L 504.44531 73.871094 C 504.67449 50.037269 504.84635 36.928304 504.96094 34.544922 L 505.39062 25.136719 C 505.39063 23.882307 504.93233 23.255859 504.01562 23.255859 z M 1043.8125 23.255859 C 1043.3541 23.255859 1042.8099 23.41296 1042.1797 23.726562 C 1038.0545 25.482739 1034.159 26.768617 1030.4922 27.583984 C 1025.1638 28.838396 1020.008 29.748015 1015.0234 30.3125 L 1015.0234 35.580078 L 1022.5 35.580078 C 1025.1355 35.580078 1026.8255 35.987367 1027.5703 36.802734 C 1028.3151 37.618102 1028.8021 40.253869 1029.0312 44.707031 C 1029.5469 54.366002 1029.8047 63.805464 1029.8047 73.025391 L 1029.8047 132.76562 C 1029.8047 143.42813 1029.2605 153.58908 1028.1719 163.24805 L 1031.0938 164.4707 L 1037.9688 157.50977 C 1041.6929 160.58307 1045.2446 162.74559 1048.625 164 C 1052.0626 165.25441 1055.9315 165.88281 1060.2285 165.88281 C 1064.9839 165.88281 1069.0799 165.00422 1072.5176 163.24805 C 1074.351 162.30724 1078.3897 159.35922 1084.6348 154.4043 C 1090.9371 149.38665 1094.7753 146.00032 1096.1504 144.24414 C 1099.1297 140.54363 1101.6503 135.71432 1103.7129 129.75586 C 1105.8328 123.73468 1106.8945 117.55548 1106.8945 111.2207 C 1106.8945 99.680114 1103.9137 90.428783 1097.9551 83.466797 C 1091.9965 76.504811 1084.406 73.025391 1075.1816 73.025391 C 1071.0565 73.025391 1067.161 73.777909 1063.4941 75.283203 C 1059.8846 76.725777 1056.961 78.638102 1054.7266 81.021484 L 1044.2422 92.59375 L 1044.2422 72.648438 C 1044.2422 58.661745 1044.3281 47.622206 1044.5 39.53125 C 1044.5573 37.775073 1044.7864 35.11023 1045.1875 31.535156 L 1045.6172 26.830078 C 1045.6172 24.446696 1045.0157 23.255859 1043.8125 23.255859 z M 712.00391 30.027344 C 711.05229 30.013624 710.10356 30.013617 709.1582 30.029297 L 690.33594 30.40625 L 667.21875 30.59375 C 663.95299 30.59375 657.59415 30.43665 648.14062 30.123047 L 648.14062 36.050781 L 655.01562 37.179688 C 659.08351 37.806893 661.43226 38.497353 662.0625 39.25 C 662.75003 40.002647 663.29425 42.729549 663.69531 47.433594 C 664.38284 55.52455 664.72656 65.152141 664.72656 76.316406 L 664.72656 103.60156 C 664.72656 127.87443 664.26827 144.87011 663.35156 154.5918 L 655.35938 159.76758 L 655.35938 164.2832 C 662.52114 163.53056 668.42168 163.1543 673.0625 163.1543 C 675.81262 163.1543 682.37195 163.37346 692.74219 163.8125 L 703.31445 164.0957 C 724.34139 164.0957 741.35752 157.16399 754.36328 143.30273 C 767.42634 129.44148 773.95703 111.9105 773.95703 90.710938 C 773.95703 80.236599 772.26707 71.01825 768.88672 63.052734 C 765.50637 55.024499 760.5797 48.375952 754.10547 43.107422 C 747.63123 37.776172 740.41115 34.230786 732.44727 32.474609 C 725.47887 30.937955 718.66524 30.123385 712.00391 30.027344 z M 235.19141 30.029297 L 222.64453 30.3125 C 211.98783 30.626103 204.85562 30.78125 201.24609 30.78125 C 198.89704 30.78125 195.66033 30.688162 191.53516 30.5 L 183.62695 30.216797 L 176.49414 30.216797 L 176.49414 36.050781 L 182.33789 36.050781 C 187.20789 36.050781 190.27469 37.2746 191.53516 39.720703 C 192.56645 41.790483 193.08203 50.663602 193.08203 66.34375 L 193.08203 124.95703 C 193.08203 134.49056 192.88153 142.98937 192.48047 150.45312 C 192.36588 152.77379 191.96487 154.43592 191.27734 155.43945 C 190.64711 156.44298 188.55419 157.88596 185.00195 159.76758 L 185.00195 164 L 192.13672 163.71875 C 196.31919 163.46787 199.84233 163.3418 202.70703 163.3418 C 206.66032 163.3418 211.50106 163.46787 217.23047 163.71875 L 224.01953 163.90625 C 238.11388 163.90625 249.71641 159.57927 258.82617 150.92383 C 267.99323 142.20567 272.57617 131.85659 272.57617 119.87695 C 272.57617 110.40614 269.85505 103.00508 264.41211 97.673828 C 258.96917 92.279857 250.08972 89.143713 237.77148 88.265625 C 248.25631 84.627831 255.6463 80.112721 259.94336 74.71875 C 264.29771 69.324779 266.47461 63.052491 266.47461 55.902344 C 266.47461 47.184181 263.40977 40.440593 257.2793 35.673828 C 252.4093 31.910593 245.04599 30.029297 235.19141 30.029297 z M 223.07422 37.744141 C 232.12669 37.744141 238.71662 39.687495 242.8418 43.576172 C 246.96697 47.402128 249.0293 52.921897 249.0293 60.134766 C 249.0293 68.476604 246.56597 74.874963 241.63867 79.328125 C 236.71138 83.718566 228.54606 85.914062 217.14453 85.914062 C 214.73818 85.914063 212.10299 85.819021 209.23828 85.630859 L 209.23828 73.683594 C 209.23828 58.191607 209.49607 46.618709 210.01172 38.966797 C 214.70984 38.151429 219.06363 37.744141 223.07422 37.744141 z M 703.31445 38.214844 C 720.50269 38.214844 733.53738 43.013124 742.41797 52.609375 C 751.35585 62.205626 755.82422 76.160196 755.82422 94.474609 C 755.82422 115.48601 750.46791 131.48093 739.75391 142.45703 C 730.87332 151.4888 718.41149 156.00391 702.36914 156.00391 C 696.46785 156.00391 689.64877 155.37746 681.91406 154.12305 C 681.22653 144.21319 680.88281 133.58094 680.88281 122.22852 L 680.88281 60.699219 C 680.88281 53.047306 681.22653 46.21063 681.91406 40.189453 C 690.16441 38.872321 697.29857 38.214844 703.31445 38.214844 z M 899.51758 44.423828 C 896.59558 46.305446 891.81213 48.78216 885.16602 51.855469 C 885.56707 62.329808 885.79622 72.05244 885.85352 81.021484 C 881.67105 83.279426 877.11479 85.443892 872.1875 87.513672 L 872.1875 91.558594 C 876.88562 91.11955 881.44187 90.900391 885.85352 90.900391 L 885.85352 126.65039 L 885.5957 144.80859 C 885.5957 150.20256 886.2545 154.24833 887.57227 156.94531 C 888.89003 159.57958 891.00964 161.71106 893.93164 163.3418 C 896.85364 165.03525 900.43406 165.88281 904.67383 165.88281 C 906.27806 165.88281 907.93938 165.69468 909.6582 165.31836 C 911.37703 164.94204 913.15292 164.40868 914.98633 163.71875 L 923.32422 152.89844 L 920.83008 149.60547 C 919.28314 151.04804 917.70775 152.14579 916.10352 152.89844 C 914.55657 153.58836 912.95254 153.93359 911.29102 153.93359 C 908.59819 153.93359 906.36401 153.18108 904.58789 151.67578 C 902.86907 150.17049 901.72333 148.07003 901.15039 145.37305 C 900.57745 142.67606 900.29102 136.52984 900.29102 126.93359 L 900.29102 90.052734 L 903.29883 90.052734 L 919.79883 89.958984 L 923.32422 90.052734 L 924.26953 80.363281 L 917.39258 80.738281 C 912.98093 80.926443 907.2809 81.021484 900.29102 81.021484 C 900.80666 62.769792 901.2936 51.196894 901.75195 46.304688 L 899.51758 44.423828 z M 823.37305 72.929688 C 819.76352 72.929688 816.35495 73.432017 813.14648 74.435547 C 809.99531 75.439076 806.30031 77.258313 802.06055 79.892578 L 792.69336 85.724609 L 792.7793 92.216797 L 792.69336 98.519531 L 797.50586 99.931641 C 798.88092 95.854802 800.39902 91.589881 802.06055 87.136719 C 804.12313 85.631425 806.35732 84.502647 808.76367 83.75 C 811.17002 82.997353 813.74793 82.621094 816.49805 82.621094 C 823.7171 82.621094 829.27588 85.097808 833.17188 90.052734 C 836.26576 94.004132 837.86979 99.962219 837.98438 107.92773 C 819.30649 111.56553 807.38889 114.51354 802.23242 116.77148 C 797.13325 119.02943 793.18046 122.54183 790.37305 127.30859 C 787.62293 132.01264 786.24805 137.53241 786.24805 143.86719 C 786.24805 150.57829 788.1958 155.94096 792.0918 159.95508 C 795.9878 163.90648 801.63054 165.88281 809.02148 165.88281 C 811.7716 165.88281 813.91986 165.59964 815.4668 165.03516 C 817.01374 164.53339 818.58912 163.62377 820.19336 162.30664 L 837.98438 147.44336 C 838.04167 150.20307 838.07031 152.92997 838.07031 155.62695 L 837.98438 164 C 843.37002 163.56096 847.66653 163.3418 850.875 163.3418 C 853.45324 163.3418 858.00753 163.56096 864.53906 164 L 864.53906 157.79102 L 857.83594 157.79102 C 855.54417 157.79102 854.112 156.91243 853.53906 155.15625 C 852.96612 153.40007 852.6224 144.08668 852.50781 127.21484 C 852.33593 109.33947 851.90628 98.144789 851.21875 93.628906 C 850.24475 87.607729 847.32312 82.652349 842.45312 78.763672 C 837.64042 74.874995 831.27963 72.929688 823.37305 72.929688 z M 968.78711 72.929688 C 965.17758 72.929688 961.76706 73.432017 958.55859 74.435547 C 955.40742 75.439076 951.71242 77.258313 947.47266 79.892578 L 938.10547 85.724609 L 938.19141 92.216797 L 938.10547 98.519531 L 942.91797 99.931641 C 944.29303 95.854802 945.81113 91.589881 947.47266 87.136719 C 949.53524 85.631425 951.76943 84.502647 954.17578 83.75 C 956.58213 82.997353 959.16004 82.621094 961.91016 82.621094 C 969.12921 82.621094 974.68798 85.097808 978.58398 90.052734 C 981.67787 94.004132 983.2819 99.962219 983.39648 107.92773 C 964.7186 111.56553 952.801 114.51354 947.64453 116.77148 C 942.54536 119.02943 938.59257 122.54183 935.78516 127.30859 C 933.03504 132.01264 931.66016 137.53241 931.66016 143.86719 C 931.66016 150.57829 933.60791 155.94096 937.50391 159.95508 C 941.39991 163.90648 947.04265 165.88281 954.43359 165.88281 C 957.18371 165.88281 959.33197 165.59964 960.87891 165.03516 C 962.42585 164.53339 964.00123 163.62377 965.60547 162.30664 L 983.39648 147.44336 C 983.45378 150.20307 983.48242 152.92997 983.48242 155.62695 L 983.39648 164 C 988.78213 163.56096 993.07864 163.3418 996.28711 163.3418 C 998.86534 163.3418 1003.4196 163.56096 1009.9512 164 L 1009.9512 157.79102 L 1003.248 157.79102 C 1000.9563 157.79102 999.52411 156.91243 998.95117 155.15625 C 998.37823 153.40007 998.03451 144.08668 997.91992 127.21484 C 997.74804 109.33947 997.31839 98.144789 996.63086 93.628906 C 995.65686 87.607729 992.73523 82.652349 987.86523 78.763672 C 983.05253 74.874995 976.6937 72.929688 968.78711 72.929688 z M 1154.0762 72.929688 C 1150.4666 72.929688 1147.0561 73.432017 1143.8477 74.435547 C 1140.6965 75.439076 1137.0015 77.258313 1132.7617 79.892578 L 1123.3945 85.724609 L 1123.4805 92.216797 L 1123.3945 98.519531 L 1128.207 99.931641 C 1129.5821 95.854802 1131.1002 91.589881 1132.7617 87.136719 C 1134.8243 85.631425 1137.0585 84.502647 1139.4648 83.75 C 1141.8712 82.997353 1144.4491 82.621094 1147.1992 82.621094 C 1154.4183 82.621094 1159.977 85.097808 1163.873 90.052734 C 1166.9669 94.004132 1168.571 99.962219 1168.6855 107.92773 C 1150.0077 111.56553 1138.0901 114.51354 1132.9336 116.77148 C 1127.8344 119.02943 1123.8816 122.54183 1121.0742 127.30859 C 1118.3241 132.01264 1116.9492 137.53241 1116.9492 143.86719 C 1116.9492 150.57829 1118.897 155.94096 1122.793 159.95508 C 1126.689 163.90648 1132.3317 165.88281 1139.7227 165.88281 C 1142.4728 165.88281 1144.621 165.59964 1146.168 165.03516 C 1147.7149 164.53339 1149.2922 163.62377 1150.8965 162.30664 L 1168.6855 147.44336 C 1168.7428 150.20307 1168.7715 152.92997 1168.7715 155.62695 L 1168.6855 164 C 1174.0712 163.56096 1178.3677 163.3418 1181.5762 163.3418 C 1184.1544 163.3418 1188.7087 163.56096 1195.2402 164 L 1195.2402 157.79102 L 1188.5371 157.79102 C 1186.2453 157.79102 1184.8132 156.91243 1184.2402 155.15625 C 1183.6673 153.40007 1183.3236 144.08668 1183.209 127.21484 C 1183.0371 109.33947 1182.6075 98.144789 1181.9199 93.628906 C 1180.9459 87.607729 1178.0243 82.652349 1173.1543 78.763672 C 1168.3416 74.874995 1161.9828 72.929688 1154.0762 72.929688 z M 328.86914 73.025391 C 320.44691 73.025391 312.91174 74.999775 306.26562 78.951172 C 299.6768 82.902569 294.54964 88.391309 290.88281 95.416016 C 287.21599 102.378 285.38281 110.18636 285.38281 118.8418 C 285.38281 133.33025 288.96324 144.80811 296.125 153.27539 C 303.34406 161.67995 312.6818 165.88281 324.14062 165.88281 C 336.0578 165.88281 346.28544 161.77499 354.82227 153.55859 C 364.39038 144.40139 369.17383 132.04494 369.17383 116.49023 C 369.17383 103.31891 365.50747 92.781701 358.17383 84.878906 C 350.84018 76.976112 341.07279 73.025391 328.86914 73.025391 z M 425.12305 73.025391 C 416.70081 73.025391 409.16565 74.999775 402.51953 78.951172 C 395.93071 82.902569 390.80354 88.391309 387.13672 95.416016 C 383.4699 102.378 381.63672 110.18636 381.63672 118.8418 C 381.63672 133.33025 385.21714 144.80811 392.37891 153.27539 C 399.59796 161.67995 408.93766 165.88281 420.39648 165.88281 C 432.31366 165.88281 442.53935 161.77499 451.07617 153.55859 C 460.64429 144.40139 465.42969 132.04494 465.42969 116.49023 C 465.42969 103.31891 461.76138 92.781701 454.42773 84.878906 C 447.09409 76.976112 437.32669 73.025391 425.12305 73.025391 z M 608.52148 73.025391 C 598.38043 73.025391 590.53019 75.628175 584.97266 80.833984 C 579.47242 86.039794 576.72266 92.812458 576.72266 101.1543 C 576.72266 105.60746 577.63924 109.40303 579.47266 112.53906 C 581.30607 115.67509 584.05583 118.18284 587.72266 120.06445 C 591.38948 121.94607 598.92464 124.14157 610.32617 126.65039 C 616.45664 128.03024 620.60993 129.88051 622.78711 132.20117 C 624.96429 134.52183 626.05273 137.59592 626.05273 141.42188 C 626.05273 146.25136 624.19091 150.42124 620.4668 153.93359 C 616.74268 157.38323 611.93059 159.10938 606.0293 159.10938 C 601.44577 159.10937 596.97545 158.16677 592.62109 156.28516 C 588.32404 154.40354 585.43105 152.46018 583.94141 150.45312 C 583.13929 149.26143 582.73828 146.22033 582.73828 141.32812 L 582.73828 135.21094 L 577.41016 135.21094 L 577.49609 139.72852 C 577.49609 143.11543 577.2383 147.8497 576.72266 153.93359 C 576.55077 156.31698 576.35027 157.97911 576.12109 158.91992 L 575.86328 160.23828 C 575.86328 161.11637 576.63665 161.77385 578.18359 162.21289 C 586.94959 164.65899 594.85712 165.88281 601.9043 165.88281 C 612.96206 165.88281 621.78422 162.80873 628.37305 156.66211 C 635.01916 150.51549 638.3418 143.20947 638.3418 134.74219 C 638.3418 130.60263 637.53978 126.93313 635.93555 123.73438 C 634.33131 120.53562 632.2117 118.152 629.57617 116.58398 C 626.94064 115.01597 621.4984 113.3228 613.24805 111.50391 C 602.0757 109.0578 595.25662 106.73624 592.79297 104.54102 C 590.32932 102.40852 589.09766 99.241342 589.09766 95.039062 C 589.09766 90.648621 590.6444 87.0121 593.73828 84.126953 C 596.88946 81.179085 601.07335 79.705078 606.28711 79.705078 C 610.2404 79.705078 613.96404 80.645726 617.45898 82.527344 C 620.95393 84.408962 623.35997 86.509416 624.67773 88.830078 C 625.65173 90.586255 626.19596 94.224728 626.31055 99.744141 L 631.38086 99.744141 C 631.66733 89.708846 632.03969 82.557969 632.49805 78.292969 C 624.53417 74.780616 616.54266 73.025391 608.52148 73.025391 z M 1237.9531 73.025391 C 1227.8121 73.025391 1219.9638 75.628175 1214.4062 80.833984 C 1208.906 86.039794 1206.1562 92.812458 1206.1562 101.1543 C 1206.1562 105.60746 1207.0728 109.40303 1208.9062 112.53906 C 1210.7397 115.67509 1213.4894 118.18284 1217.1562 120.06445 C 1220.8231 121.94607 1228.3563 124.14157 1239.7578 126.65039 C 1245.8883 128.03024 1250.0435 129.88051 1252.2207 132.20117 C 1254.3979 134.52183 1255.4863 137.59592 1255.4863 141.42188 C 1255.4863 146.25136 1253.6245 150.42124 1249.9004 153.93359 C 1246.1763 157.38323 1241.3622 159.10938 1235.4609 159.10938 C 1230.8774 159.10937 1226.409 158.16677 1222.0547 156.28516 C 1217.7576 154.40354 1214.8646 152.46018 1213.375 150.45312 C 1212.5729 149.26143 1212.1719 146.22033 1212.1719 141.32812 L 1212.1719 135.21094 L 1206.8438 135.21094 L 1206.9297 139.72852 C 1206.9297 143.11543 1206.6719 147.8497 1206.1562 153.93359 C 1205.9844 156.31698 1205.7839 157.97911 1205.5547 158.91992 L 1205.2969 160.23828 C 1205.2969 161.11637 1206.0702 161.77385 1207.6172 162.21289 C 1216.3832 164.65899 1224.2888 165.88281 1231.3359 165.88281 C 1242.3937 165.88281 1251.2178 162.80873 1257.8066 156.66211 C 1264.4528 150.51549 1267.7754 143.20947 1267.7754 134.74219 C 1267.7754 130.60263 1266.9734 126.93313 1265.3691 123.73438 C 1263.7649 120.53562 1261.6453 118.152 1259.0098 116.58398 C 1256.3742 115.01597 1250.93 113.3228 1242.6797 111.50391 C 1231.5073 109.0578 1224.6902 106.73624 1222.2266 104.54102 C 1219.7629 102.40852 1218.5312 99.241342 1218.5312 95.039062 C 1218.5312 90.648621 1220.078 87.0121 1223.1719 84.126953 C 1226.3231 81.179085 1230.505 79.705078 1235.7188 79.705078 C 1239.672 79.705078 1243.3976 80.645726 1246.8926 82.527344 C 1250.3875 84.408962 1252.7936 86.509416 1254.1113 88.830078 C 1255.0853 90.586255 1255.6296 94.224728 1255.7441 99.744141 L 1260.8145 99.744141 C 1261.1009 89.708846 1261.4733 82.557969 1261.9316 78.292969 C 1253.9678 74.780616 1245.9743 73.025391 1237.9531 73.025391 z M 1319.9414 73.025391 C 1313.238 73.025391 1306.3349 75.187904 1299.2305 79.515625 C 1292.126 83.843346 1287.2547 88.548538 1284.6191 93.628906 C 1280.6086 101.34354 1278.6035 110.4688 1278.6035 121.00586 C 1278.6035 134.80439 1282.1572 145.74889 1289.2617 153.83984 C 1296.4235 161.86808 1305.8185 165.88281 1317.4492 165.88281 C 1322.7776 165.88281 1327.962 165.13029 1333.0039 163.625 C 1338.0458 162.11971 1342.9458 159.8602 1347.7012 156.84961 L 1350.4512 148.94727 L 1348.9902 147.53711 C 1345.0942 150.42226 1341.1701 152.58477 1337.2168 154.02734 C 1333.2635 155.46992 1329.2801 156.19141 1325.2695 156.19141 C 1316.3316 156.19141 1309.1135 152.9932 1303.6133 146.5957 C 1298.113 140.1982 1295.2201 130.8208 1294.9336 118.46484 L 1316.418 118.46484 C 1327.3038 118.46484 1335.8129 118.21466 1341.9434 117.71289 C 1345.381 117.39929 1348.9901 116.73986 1352.7715 115.73633 L 1352.9434 110.18555 C 1352.9434 98.456796 1349.9644 89.331535 1344.0059 82.808594 C 1338.1046 76.285652 1330.0825 73.025391 1319.9414 73.025391 z M 325.34375 79.705078 C 330.44293 79.705078 335.05646 81.303203 339.18164 84.501953 C 343.30682 87.637983 346.62945 92.686452 349.15039 99.648438 C 351.67133 106.5477 352.93164 114.73427 352.93164 124.20508 C 352.93164 135.93383 350.78339 144.68283 346.48633 150.45312 C 342.24656 156.22342 336.6611 159.10938 329.72852 159.10938 C 320.61875 159.10937 313.62781 154.53025 308.75781 145.37305 C 303.94511 136.15312 301.53906 125.08255 301.53906 112.16211 C 301.53906 105.45101 302.71344 99.240777 305.0625 93.533203 C 306.78132 89.330923 309.44516 85.975621 313.05469 83.466797 C 316.72151 80.957973 320.81752 79.705078 325.34375 79.705078 z M 421.59961 79.705078 C 426.69879 79.705078 431.31037 81.303203 435.43555 84.501953 C 439.56072 87.637983 442.88336 92.686452 445.4043 99.648438 C 447.92524 106.5477 449.18555 114.73427 449.18555 124.20508 C 449.18555 135.93383 447.03729 144.68283 442.74023 150.45312 C 438.50047 156.22342 432.91501 159.10938 425.98242 159.10938 C 416.87266 159.10937 409.88172 154.53025 405.01172 145.37305 C 400.19901 136.15312 397.79297 125.08255 397.79297 112.16211 C 397.79297 105.45101 398.96735 99.240777 401.31641 93.533203 C 403.03523 89.330923 405.69906 85.975621 409.30859 83.466797 C 412.97542 80.957973 417.07337 79.705078 421.59961 79.705078 z M 1316.5039 79.705078 C 1320.6291 79.705078 1324.2668 80.738814 1327.418 82.808594 C 1330.5691 84.815653 1332.7747 87.356378 1334.0352 90.429688 C 1336.0405 95.384614 1337.0449 100.62121 1337.0449 106.14062 L 1337.0449 111.41016 C 1333.0343 111.8492 1328.8791 112.06836 1324.582 112.06836 C 1313.868 112.06836 1304.072 111.8492 1295.1914 111.41016 C 1295.306 100.55949 1297.2824 92.561057 1301.1211 87.417969 C 1304.9598 82.27488 1310.087 79.705078 1316.5039 79.705078 z M 1067.3613 84.878906 C 1074.8669 84.878906 1080.8247 87.762909 1085.2363 93.533203 C 1089.7053 99.240777 1091.9395 107.55146 1091.9395 118.46484 C 1091.9395 128.93918 1089.648 137.84528 1085.0645 145.18359 C 1080.4809 152.5219 1074.0075 156.19141 1065.6426 156.19141 C 1060.8299 156.19141 1056.3882 154.84347 1052.3203 152.14648 C 1048.3097 149.4495 1045.8464 147.06587 1044.9297 144.99609 C 1044.4713 143.99256 1044.2422 140.1039 1044.2422 133.33008 L 1044.2422 111.87891 C 1044.2422 105.98317 1044.5286 102.22058 1045.1016 100.58984 C 1046.6485 96.387564 1049.4842 92.718061 1053.6094 89.582031 C 1057.7918 86.446002 1062.3767 84.878906 1067.3613 84.878906 z M 219.12109 93.251953 C 228.86109 93.251953 235.93796 94.287642 240.34961 96.357422 C 244.81855 98.364481 248.2844 101.59371 250.74805 106.04688 C 253.21169 110.43732 254.44336 116.01914 254.44336 122.79297 C 254.44336 132.9537 251.63631 141.0142 246.02148 146.97266 C 240.46396 152.86839 232.61371 155.81641 222.47266 155.81641 C 218.97772 155.81641 214.56663 155.37614 209.23828 154.49805 C 209.46746 152.24011 209.58203 150.26572 209.58203 148.57227 C 209.58203 146.31432 209.4961 143.05211 209.32422 138.78711 L 209.23828 126.93359 L 209.23828 93.533203 C 212.9051 93.345041 216.19909 93.251953 219.12109 93.251953 z M 837.98438 113.47852 L 837.8125 118.08984 L 837.98438 138.97461 C 834.43214 144.18042 830.6779 148.10011 826.72461 150.73438 C 822.82861 153.36864 818.73261 154.6875 814.43555 154.6875 C 810.53955 154.6875 807.36013 153.30658 804.89648 150.54688 C 802.43284 147.72445 801.20117 143.99289 801.20117 139.35156 C 801.20117 132.4523 803.34943 127.3728 807.64648 124.11133 C 811.94354 120.78714 822.05661 117.24175 837.98438 113.47852 z M 983.39648 113.47852 L 983.22461 118.08984 L 983.39648 138.97461 C 979.84425 144.18042 976.09197 148.10011 972.13867 150.73438 C 968.24267 153.36864 964.14471 154.6875 959.84766 154.6875 C 955.95166 154.6875 952.77224 153.30658 950.30859 150.54688 C 947.84495 147.72445 946.61328 143.99289 946.61328 139.35156 C 946.61328 132.4523 948.76154 127.3728 953.05859 124.11133 C 957.35565 120.78714 967.46872 117.24175 983.39648 113.47852 z M 1168.6855 113.47852 L 1168.5137 118.08984 L 1168.6855 138.97461 C 1165.1333 144.18042 1161.381 148.10011 1157.4277 150.73438 C 1153.5317 153.36864 1149.4338 154.6875 1145.1367 154.6875 C 1141.2407 154.6875 1138.0613 153.30658 1135.5977 150.54688 C 1133.134 147.72445 1131.9023 143.99289 1131.9023 139.35156 C 1131.9023 132.4523 1134.0506 127.3728 1138.3477 124.11133 C 1142.6447 120.78714 1152.7578 117.24175 1168.6855 113.47852 z "
       transform="translate(7.95742,4.9631159)"
       id="text6225" />
    <g
       id="g6221"
       transform="translate(-33.989847,1.9336477)">
      <path
         id="path5125"
         d="m 41.947267,33.45498 0.158982,133.01677 c 25.456808,0 61.394341,6.82576 92.499821,24.7845 v -6.085 C 109.99096,160.55616 92.900261,154.30175 52.926552,154.30175 L 52.798401,33.714538 C 49.076753,33.537856 45.451967,33.45498 41.947267,33.45498 Z"
         style="fill:#6c757d;fill-opacity:1;stroke:none;stroke-width:3.04257679px;stroke-linecap:butt;stroke-linejoin:miter;stroke-opacity:1"
         inkscape:connector-curvature="0" />
      <path
         style="fill:#f24b59;fill-opacity:1;stroke:none;stroke-width:2.6522541px;stroke-linecap:butt;stroke-linejoin:miter;stroke-opacity:1"
         d="m 64.316486,136.04575 c 35.211014,0 53.613614,14.15809 70.289004,43.04067 V 45.654177 C 117.96166,16.826277 100.31078,3.0294682 64.195702,3.0294682 Z"
         id="path5146"
         inkscape:connector-curvature="0"
         sodipodi:nodetypes="ccccc" />
      <path
         id="path5150"
         d="m 227.07343,154.30175 c -39.97369,0 -57.06437,6.25441 -81.67948,30.8695 v 6.085 c 31.10546,-17.95874 67.04301,-24.7845 92.49984,-24.7845 11.81762,-13.9587 -10.82036,-12.17 -10.82036,-12.17 z"
         style="fill:#6c757d;fill-opacity:1;stroke:none;stroke-width:3.04257679px;stroke-linecap:butt;stroke-linejoin:miter;stroke-opacity:1"
         inkscape:connector-curvature="0"
         sodipodi:nodetypes="ccccc" />
      <path
         sodipodi:nodetypes="ccccc"
         inkscape:connector-curvature="0"
         id="path5154"
         d="m 215.68338,136.04575 c -35.21095,0 -53.61354,14.15809 -70.28893,43.04067 V 45.654177 c 16.64383,-28.8279 34.29474,-42.6247088 70.40978,-42.6247088 z"
         style="fill:#f24b59;fill-opacity:1;stroke:none;stroke-width:2.6522541px;stroke-linecap:butt;stroke-linejoin:miter;stroke-opacity:1" />
    </g>
  </g>
</svg>
